<svg width="64" height="64" viewBox="0 0 64 64" fill="none" xmlns="http://www.w3.org/2000/svg">
    <rect width="64" height="64" rx="12" fill="black"/>
    <path d="M28.2069 50.7396L27.8729 43.9881L41.5429 32.6799C42.4495 31.9284 43.2248 31.2247 43.869 30.5686C44.525 29.9006 45.026 29.2147 45.3719 28.5109C45.7298 27.8072 45.9087 27.0258 45.9087 26.167C45.9087 25.2247 45.7059 24.4195 45.3004 23.7515C44.9067 23.0835 44.358 22.5706 43.6542 22.2127C42.9505 21.8429 42.1393 21.6581 41.2208 21.6581C40.3024 21.6581 39.4912 21.8429 38.7874 22.2127C38.0956 22.5825 37.5588 23.1252 37.1771 23.841C36.7954 24.5567 36.6045 25.4274 36.6045 26.4533H27.1572C27.1572 23.8767 27.7358 21.6581 28.8928 19.7972C30.0499 17.9364 31.6841 16.505 33.7954 15.503C35.9067 14.501 38.3819 14 41.2208 14C44.1552 14 46.696 14.4712 48.8431 15.4135C51.0022 16.3439 52.6662 17.6561 53.8352 19.3499C55.0161 21.0437 55.6065 23.0298 55.6065 25.3082C55.6065 26.7157 55.3143 28.1173 54.7298 29.5129C54.1453 30.8966 53.0956 32.4294 51.5807 34.1113C50.0658 35.7932 47.9127 37.7972 45.1214 40.1233L41.6861 42.9861V43.2008H56.0002V50.7396H28.2069Z" fill="#E5ECF5"/>
    <path d="M28.2069 50.7396L27.8729 43.9881L41.5429 32.6799C42.4495 31.9284 43.2248 31.2247 43.869 30.5686C44.525 29.9006 45.026 29.2147 45.3719 28.5109C45.7298 27.8072 45.9087 27.0258 45.9087 26.167C45.9087 25.2247 45.7059 24.4195 45.3004 23.7515C44.9067 23.0835 44.358 22.5706 43.6542 22.2127C42.9505 21.8429 42.1393 21.6581 41.2208 21.6581C40.3024 21.6581 39.4912 21.8429 38.7874 22.2127C38.0956 22.5825 37.5588 23.1252 37.1771 23.841C36.7954 24.5567 36.6045 25.4274 36.6045 26.4533H27.1572C27.1572 23.8767 27.7358 21.6581 28.8928 19.7972C30.0499 17.9364 31.6841 16.505 33.7954 15.503C35.9067 14.501 38.3819 14 41.2208 14C44.1552 14 46.696 14.4712 48.8431 15.4135C51.0022 16.3439 52.6662 17.6561 53.8352 19.3499C55.0161 21.0437 55.6065 23.0298 55.6065 25.3082C55.6065 26.7157 55.3143 28.1173 54.7298 29.5129C54.1453 30.8966 53.0956 32.4294 51.5807 34.1113C50.0658 35.7932 47.9127 37.7972 45.1214 40.1233L41.6861 42.9861V43.2008H56.0002V50.7396H28.2069Z" stroke="black"/>
    <path d="M8 50.7396V14.0955H23.8171C26.5368 14.0955 28.9165 14.5905 30.9563 15.5805C32.996 16.5706 34.5825 17.9961 35.7157 19.8569C36.8489 21.7177 37.4155 23.9483 37.4155 26.5487C37.4155 29.173 36.831 31.3857 35.662 33.1869C34.505 34.9881 32.8767 36.3479 30.7773 37.2664C28.6899 38.1849 26.2505 38.6442 23.4592 38.6442H14.0119V30.9145H21.4553C22.6243 30.9145 23.6203 30.7714 24.4433 30.4851C25.2783 30.1869 25.9165 29.7157 26.3579 29.0716C26.8111 28.4275 27.0378 27.5865 27.0378 26.5487C27.0378 25.499 26.8111 24.6462 26.3579 23.9901C25.9165 23.3221 25.2783 22.833 24.4433 22.5229C23.6203 22.2008 22.6243 22.0398 21.4553 22.0398H17.9483V50.7396H8ZM29.4712 33.9205L38.6322 50.7396H28.2068L18.8787 33.9205H29.4712Z" fill="#E5ECF5"/>
    <path fill-rule="evenodd" clip-rule="evenodd" d="M6 52.7396V12.0955H23.8171C26.7797 12.0955 29.4687 12.6354 31.8296 13.7813C34.1999 14.9318 36.0826 16.6142 37.4239 18.8167C38.782 21.0468 39.4155 23.6529 39.4155 26.5487C39.4155 29.4712 38.7624 32.0815 37.3424 34.2715C36.4259 35.6971 35.2643 36.8834 33.8787 37.8312L41.999 52.7396H27.029L20.3207 40.6442H19.9483V52.7396H6ZM17.9483 38.6442H21.4985L28.2068 50.7396H38.6322L31.1905 37.0771C31.8092 36.7802 32.3845 36.4425 32.9162 36.0642C34.0183 35.28 34.9335 34.321 35.662 33.1869C36.831 31.3857 37.4155 29.173 37.4155 26.5487C37.4155 23.9483 36.8489 21.7177 35.7157 19.8569C34.5825 17.9961 32.996 16.5706 30.9563 15.5805C28.9165 14.5905 26.5368 14.0955 23.8171 14.0955H8V50.7396H17.9483V38.6442ZM21.4553 30.9145C22.6243 30.9145 23.6203 30.7714 24.4433 30.4851C25.2783 30.1869 25.9165 29.7157 26.3579 29.0716C26.8111 28.4275 27.0378 27.5865 27.0378 26.5487C27.0378 25.499 26.8111 24.6462 26.3579 23.9901C25.9165 23.3221 25.2783 22.833 24.4433 22.5229C23.6203 22.2008 22.6243 22.0398 21.4553 22.0398H17.9483V30.9145H21.4553ZM19.9483 28.9145H21.4553C22.4672 28.9145 23.2255 28.7898 23.7783 28.5989C24.2676 28.4228 24.5373 28.1902 24.708 27.9411L24.715 27.9308L24.7222 27.9206C24.8734 27.7058 25.0378 27.304 25.0378 26.5487C25.0378 25.7782 24.8718 25.3577 24.7124 25.127L24.7006 25.1099L24.6892 25.0926C24.508 24.8183 24.2311 24.5776 23.747 24.3977L23.7307 24.3917L23.7145 24.3854C23.1853 24.1783 22.4509 24.0398 21.4553 24.0398H19.9483V28.9145Z" fill="black"/>
</svg>
